<?xml version="1.0" encoding="UTF-8" standalone="no"?>
<!DOCTYPE svg PUBLIC "-//W3C//DTD SVG 1.1//EN" "http://www.w3.org/Graphics/SVG/1.1/DTD/svg11.dtd">
<svg version="1.1" xmlns="http://www.w3.org/2000/svg" xmlns:xlink="http://www.w3.org/1999/xlink" preserveAspectRatio="xMidYMid meet" viewBox="0 0 550 550" width="550" height="550"><defs><path d="M494.55 128.34C513.05 128.9 527.62 143.74 527.08 161.51C527.06 162.18 527.02 162.84 526.96 163.5C540.24 166.6 549.79 175.94 549.47 186.69C549.47 186.69 549.47 186.69 549.47 186.69C549.08 199.56 534.67 209.58 517.27 209.06C509.36 208.82 446.14 206.93 438.24 206.69C420.84 206.17 407.04 195.31 407.43 182.43C407.43 182.43 407.43 182.43 407.43 182.43C407.76 171.21 418.77 162.16 433.11 160.37C434.75 148.23 445.74 139.05 458.75 139.44C461.61 139.53 464.34 140.07 466.88 140.99C473.21 133.02 483.31 128.01 494.55 128.34Z" id="b5piDdO1pH"></path><linearGradient id="gradientcfuuuzD49" gradientUnits="userSpaceOnUse" x1="480.14" y1="127.91" x2="477.75" y2="207.88"><stop style="stop-color: #213e77;stop-opacity: 1" offset="0%"></stop><stop style="stop-color: #010000;stop-opacity: 1" offset="100%"></stop></linearGradient><path d="M334.33 39.47C345.3 39.47 354.19 48.19 354.19 58.95C354.19 59.35 354.18 59.76 354.15 60.16C362.07 61.79 367.89 67.27 367.89 73.78C367.89 73.78 367.89 73.78 367.89 73.78C367.89 81.57 359.53 87.89 349.22 87.89C344.53 87.89 307.05 87.89 302.36 87.89C292.05 87.89 283.68 81.57 283.68 73.78C283.68 73.78 283.68 73.78 283.68 73.78C283.68 66.98 290.04 61.3 298.5 59.96C299.26 52.59 305.61 46.84 313.32 46.84C315.02 46.84 316.64 47.12 318.16 47.63C321.77 42.69 327.67 39.47 334.33 39.47Z" id="b1W4iCvQm8"></path><path d="M156.84 284.74L164.74 297.37L148.95 297.37L133.16 297.37L141.05 284.74L148.95 272.11L156.84 284.74Z" id="a61inEVuX"></path><path d="M183.68 232.11L114.21 232.11L114.21 276.32L183.68 276.32L183.68 232.11Z" id="b1CryReaMg"></path><linearGradient id="gradientaGhqwK7e8" gradientUnits="userSpaceOnUse" x1="148.95" y1="232.11" x2="148.95" y2="276.32"><stop style="stop-color: #1a165f;stop-opacity: 1" offset="0%"></stop><stop style="stop-color: #010000;stop-opacity: 1" offset="100%"></stop></linearGradient><path d="" id="d1pbTJqO3E"></path><path d="M284.21 371.58L292.11 384.21L276.32 384.21L260.53 384.21L268.42 371.58L276.32 358.95L284.21 371.58Z" id="d2xIC9rP5w"></path><path d="M311.05 320L241.58 320L241.58 364.21L311.05 364.21L311.05 320Z" id="baB3wKAqJT"></path><linearGradient id="gradienta1bUta2rHP" gradientUnits="userSpaceOnUse" x1="276.32" y1="320" x2="276.32" y2="364.21"><stop style="stop-color: #1a165f;stop-opacity: 1" offset="0%"></stop><stop style="stop-color: #010000;stop-opacity: 1" offset="100%"></stop></linearGradient><path d="M412.63 292.11L420.53 304.74L404.74 304.74L388.95 304.74L396.84 292.11L404.74 279.47L412.63 292.11Z" id="a4wNSHptp8"></path><path d="M437.37 240.53L367.89 240.53L367.89 284.74L437.37 284.74L437.37 240.53Z" id="b46ENEVaFh"></path><linearGradient id="gradienta2rsQFtkSD" gradientUnits="userSpaceOnUse" x1="402.63" y1="240.53" x2="402.63" y2="284.74"><stop style="stop-color: #1a165f;stop-opacity: 1" offset="0%"></stop><stop style="stop-color: #010000;stop-opacity: 1" offset="100%"></stop></linearGradient><path d="M108.95 297.6L148.95 284.74L188.95 297.6L173.67 318.42L124.23 318.42L108.95 297.6Z" id="f7dkzKNicY"></path><path d="M294.74 351.84C294.74 360.12 287.07 366.84 277.63 366.84C268.19 366.84 260.53 360.12 260.53 351.84C260.53 343.56 268.19 336.84 277.63 336.84C287.07 336.84 294.74 343.56 294.74 351.84Z" id="cLZpaFHED"></path><path d="M423.16 279.47C423.16 287.75 415.49 294.47 406.05 294.47C396.61 294.47 388.95 287.75 388.95 279.47C388.95 271.19 396.61 264.47 406.05 264.47C415.49 264.47 423.16 271.19 423.16 279.47Z" id="b1mbwKrOGY"></path><path d="M159.59 121.68C170.56 121.68 179.45 130.4 179.45 141.16C179.45 141.56 179.44 141.97 179.41 142.36C187.33 144 193.16 149.48 193.16 155.98C193.16 155.98 193.16 155.98 193.16 155.98C193.16 163.78 184.8 170.1 174.48 170.1C169.79 170.1 132.31 170.1 127.63 170.1C117.31 170.1 108.95 163.78 108.95 155.98C108.95 155.98 108.95 155.98 108.95 155.98C108.95 149.18 115.3 143.51 123.77 142.17C124.53 134.8 130.87 129.04 138.59 129.04C140.28 129.04 141.91 129.32 143.43 129.83C147.03 124.9 152.93 121.68 159.59 121.68Z" id="a20SaHE0jK"></path><path d="M236.32 380.23L276.31 367.37L316.32 380.23L301.04 401.05L251.59 401.05L236.32 380.23Z" id="ahv05ffFj"></path><path d="M364.74 310.23L404.74 297.37L444.74 310.23L429.46 331.05L380.02 331.05L364.74 310.23Z" id="a2802Yd4R"></path><path d="M284.86 54.21C295.82 54.21 304.71 62.93 304.71 73.68C304.71 74.09 304.7 74.5 304.68 74.89C312.6 76.53 318.42 82.01 318.42 88.51C318.42 88.51 318.42 88.51 318.42 88.51C318.42 96.31 310.06 102.63 299.74 102.63C295.06 102.63 257.57 102.63 252.89 102.63C242.57 102.63 234.21 96.31 234.21 88.51C234.21 88.51 234.21 88.51 234.21 88.51C234.21 81.71 240.57 76.04 249.03 74.7C249.79 67.33 256.13 61.57 263.85 61.57C265.54 61.57 267.17 61.85 268.69 62.36C272.3 57.43 278.19 54.21 284.86 54.21Z" id="a7mNmNZDVr"></path><path d="M439.59 152.11C450.56 152.11 459.45 160.82 459.45 171.58C459.45 171.98 459.44 172.39 459.41 172.79C467.33 174.42 473.16 179.9 473.16 186.41C473.16 186.41 473.16 186.41 473.16 186.41C473.16 194.2 464.8 200.53 454.48 200.53C449.79 200.53 412.31 200.53 407.63 200.53C397.31 200.53 388.95 194.2 388.95 186.41C388.95 186.41 388.95 186.41 388.95 186.41C388.95 179.61 395.3 173.93 403.77 172.59C404.53 165.22 410.87 159.47 418.59 159.47C420.28 159.47 421.91 159.75 423.43 160.26C427.03 155.32 432.93 152.11 439.59 152.11Z" id="aYk8opNmH"></path><path d="M303.89 117.37C322.39 117.37 337.4 131.77 337.4 149.54C337.4 150.21 337.38 150.88 337.33 151.54C350.7 154.24 360.53 163.29 360.53 174.04C360.53 174.04 360.53 174.04 360.53 174.04C360.53 186.92 346.41 197.37 329.01 197.37C321.1 197.37 257.85 197.37 249.94 197.37C232.54 197.37 218.42 186.92 218.42 174.04C218.42 174.04 218.42 174.04 218.42 174.04C218.42 162.81 229.15 153.43 243.43 151.22C244.71 139.04 255.42 129.53 268.44 129.53C271.3 129.53 274.04 129.99 276.61 130.84C282.69 122.68 292.64 117.37 303.89 117.37Z" id="dgpXjG9Ka"></path><linearGradient id="gradiente4g11IC1kS" gradientUnits="userSpaceOnUse" x1="289.47" y1="117.37" x2="289.47" y2="197.37"><stop style="stop-color: #213e77;stop-opacity: 1" offset="0%"></stop><stop style="stop-color: #010000;stop-opacity: 1" offset="100%"></stop></linearGradient><path d="M166.05 272.11C166.05 280.38 158.39 287.11 148.95 287.11C139.51 287.11 131.84 280.38 131.84 272.11C131.84 263.83 139.51 257.11 148.95 257.11C158.39 257.11 166.05 263.83 166.05 272.11Z" id="ajDbxoQA"></path><path d="M85.98 120.87C104.45 119.73 120.31 133.18 121.41 150.92C121.45 151.59 121.47 152.26 121.46 152.91C134.97 154.79 145.34 163.22 146 173.95C146 173.95 146 173.95 146 173.95C146.8 186.8 133.35 198.1 115.98 199.17C108.09 199.66 44.96 203.55 37.06 204.04C19.69 205.11 4.96 195.56 4.17 182.7C4.17 182.7 4.17 182.7 4.17 182.7C3.47 171.49 13.6 161.47 27.72 158.38C28.25 146.14 38.35 136 51.34 135.2C54.2 135.02 56.97 135.31 59.58 135.99C65.15 127.48 74.75 121.56 85.98 120.87Z" id="c1zy2vv1Rr"></path><linearGradient id="gradientaigKMw5G4" gradientUnits="userSpaceOnUse" x1="71.59" y1="121.76" x2="76.52" y2="201.61"><stop style="stop-color: #213e77;stop-opacity: 1" offset="0%"></stop><stop style="stop-color: #010000;stop-opacity: 1" offset="100%"></stop></linearGradient><path d="M311.79 209.08L260.53 209.08L260.53 236.95L311.79 236.95L311.79 209.08Z" id="a5Uwxe9pmk"></path><linearGradient id="gradientb1JUPI95ad" gradientUnits="userSpaceOnUse" x1="286.16" y1="209.08" x2="286.16" y2="236.95"><stop style="stop-color: #1a165f;stop-opacity: 1" offset="0%"></stop><stop style="stop-color: #010000;stop-opacity: 1" offset="100%"></stop></linearGradient><path d="M292.01 241.64L297.24 251.17L286.78 251.17L276.32 251.17L281.55 241.64L286.78 232.11L292.01 241.64Z" id="buGW5br3h"></path><path d="M299.28 227.42C299.28 232.68 293.84 236.95 287.14 236.95C280.44 236.95 275 232.68 275 227.42C275 222.16 280.44 217.88 287.14 217.88C293.84 217.88 299.28 222.16 299.28 227.42Z" id="cjnMSbvA6"></path><path d="M259.29 250.67L286.78 239.21L314.27 250.67L303.77 269.21L269.79 269.21L259.29 250.67Z" id="aHMEpbL0J"></path></defs><g><g><g><use xlink:href="#b5piDdO1pH" opacity="1" fill="url(#gradientcfuuuzD49)"></use></g><g><use xlink:href="#b1W4iCvQm8" opacity="1" fill="#0ff5ff" fill-opacity="1"></use></g><g><use xlink:href="#a61inEVuX" opacity="1" fill="#07387e" fill-opacity="1"></use></g><g><use xlink:href="#b1CryReaMg" opacity="1" fill="url(#gradientaGhqwK7e8)"></use></g><g><g><use xlink:href="#d1pbTJqO3E" opacity="1" fill-opacity="0" stroke="#000000" stroke-width="1" stroke-opacity="1"></use></g></g><g><use xlink:href="#d2xIC9rP5w" opacity="1" fill="#07387e" fill-opacity="1"></use></g><g><use xlink:href="#baB3wKAqJT" opacity="1" fill="url(#gradienta1bUta2rHP)"></use></g><g><use xlink:href="#a4wNSHptp8" opacity="1" fill="#07387e" fill-opacity="1"></use></g><g><use xlink:href="#b46ENEVaFh" opacity="1" fill="url(#gradienta2rsQFtkSD)"></use></g><g><use xlink:href="#f7dkzKNicY" opacity="1" fill="#55b352" fill-opacity="1"></use></g><g><use xlink:href="#cLZpaFHED" opacity="1" fill="#ddda5e" fill-opacity="1"></use></g><g><use xlink:href="#b1mbwKrOGY" opacity="1" fill="#ddda5e" fill-opacity="1"></use></g><g><use xlink:href="#a20SaHE0jK" opacity="1" fill="#0ff5ff" fill-opacity="1"></use></g><g><use xlink:href="#ahv05ffFj" opacity="1" fill="#d1785c" fill-opacity="1"></use></g><g><use xlink:href="#a2802Yd4R" opacity="1" fill="#5262b3" fill-opacity="1"></use></g><g><use xlink:href="#a7mNmNZDVr" opacity="1" fill="#0ff5ff" fill-opacity="1"></use></g><g><use xlink:href="#aYk8opNmH" opacity="1" fill="#0ff5ff" fill-opacity="1"></use></g><g><use xlink:href="#dgpXjG9Ka" opacity="1" fill="url(#gradiente4g11IC1kS)"></use></g><g><use xlink:href="#ajDbxoQA" opacity="1" fill="#ddda5e" fill-opacity="1"></use></g><g><use xlink:href="#c1zy2vv1Rr" opacity="1" fill="url(#gradientaigKMw5G4)"></use></g><g><use xlink:href="#a5Uwxe9pmk" opacity="1" fill="url(#gradientb1JUPI95ad)"></use></g><g><use xlink:href="#buGW5br3h" opacity="1" fill="#9152b3" fill-opacity="1"></use></g><g><use xlink:href="#cjnMSbvA6" opacity="1" fill="#ddda5e" fill-opacity="1"></use></g><g><use xlink:href="#aHMEpbL0J" opacity="1" fill="#e7b372" fill-opacity="1"></use></g></g></g></svg>